<?xml version="1.0" standalone="no"?><!DOCTYPE svg PUBLIC "-//W3C//DTD SVG 1.1//EN" "http://www.w3.org/Graphics/SVG/1.1/DTD/svg11.dtd"><svg t="1571798419288" class="icon" viewBox="0 0 1046 1024" version="1.1" xmlns="http://www.w3.org/2000/svg" p-id="5596" xmlns:xlink="http://www.w3.org/1999/xlink" width="204.296875" height="200"><defs><style type="text/css"></style></defs><path d="M559.270926 721.342678c-1.208599 0.826936-2.67164 0.954157-3.943849 1.717482a62.783529 62.783529 0 0 1-66.218495 0c-1.272209-0.763326-2.73525-0.890547-3.943849-1.717482l-457.99535-300.750281a63.610465 63.610465 0 0 1-15.711785-88.609378 62.592698 62.592698 0 0 1 22.836157-19.08314L476.322879 22.454494a62.974361 62.974361 0 0 1 82.693605-10.241285l457.995351 300.750281a68.762913 68.762913 0 0 1 0 107.692518z m-33.649937-578.855235L180.343383 369.322362l341.779031 224.481333 345.277606-226.77131zM104.010825 608.752154l421.101281 276.641914 421.03767-276.641914a63.610465 63.610465 0 0 1 72.897594 104.321163l-457.995351 300.750281a63.610465 63.610465 0 0 1-19.08314 8.26936c-1.526651 0.381663-2.926081 1.33582-4.452732 1.653872a304.185246 304.185246 0 0 1-24.871692 0c-1.526651 0-2.926081-1.272209-4.452733-1.653872a63.610465 63.610465 0 0 1-19.08314-8.26936l-457.995351-300.750281A63.737686 63.737686 0 0 1 104.010825 608.497712z" p-id="5597" fill="#8a8a8a"></path></svg>